<?xml version="1.0" standalone="no"?>
<!DOCTYPE svg PUBLIC "-//W3C//DTD SVG 20010904//EN"
 "http://www.w3.org/TR/2001/REC-SVG-20010904/DTD/svg10.dtd">
<svg version="1.0" xmlns="http://www.w3.org/2000/svg"
 width="1056.000000pt" height="1056.000000pt" viewBox="0 0 1056.000000 1056.000000"
 preserveAspectRatio="xMidYMid meet">
<metadata>
Created by potrace 1.14, written by Peter Selinger 2001-2017
</metadata>
<g transform="translate(0.000000,1056.000000) scale(0.100000,-0.100000)"
fill="#000000" stroke="none">
<path d="M837 9065 c-15 -31 -185 -356 -378 -722 -192 -366 -346 -669 -342
-673 4 -4 170 -93 368 -198 294 -154 2318 -1224 3425 -1809 140 -75 357 -189
483 -255 125 -66 229 -123 231 -126 2 -4 -211 -120 -473 -258 -2640 -1394
-4027 -2128 -4034 -2134 -13 -11 747 -1446 764 -1442 8 2 955 380 2104 840
l2090 837 105 0 105 0 2090 -837 c1150 -460 2096 -838 2104 -840 17 -4 777
1431 764 1442 -4 4 -595 318 -1313 697 -718 380 -1729 914 -2247 1188 -519
274 -943 501 -943 505 0 6 138 80 2930 1555 861 455 1569 830 1573 835 5 4
-161 331 -369 726 -207 396 -378 720 -379 721 0 1 -948 -377 -2106 -840
l-2104 -842 -105 0 -105 1 -2103 842 c-1156 463 -2103 842 -2105 842 -2 0 -15
-25 -30 -55z"/>
</g>
</svg>
